<?xml version="1.0" encoding="utf-8"?>
<!-- Generator: Adobe Illustrator 25.0.1, SVG Export Plug-In . SVG Version: 6.00 Build 0)  -->
<svg version="1.1" id="Layer_1" xmlns="http://www.w3.org/2000/svg" xmlns:xlink="http://www.w3.org/1999/xlink" x="0px" y="0px"
	 viewBox="0 0 45 45" style="enable-background:new 0 0 45 45;" xml:space="preserve">
<style type="text/css">
	.st0{fill:#FFFFFF;}
	.st1{fill:#04A87D;}
	.st2{fill:#F6DD00;}
	.st3{fill:#A2DEF9;}
	.st4{fill:none;stroke:#D8422D;stroke-linecap:round;stroke-linejoin:round;stroke-miterlimit:10;}
</style>
<g>
	<circle class="st0" cx="22.5" cy="22.5" r="22.5"/>
	<path class="st1" d="M34.6,31.9c-1.1-1.1-2.2-2.7-3.4-4.4c1.7,0.5,3.5-0.4,1.2-2.9c-1.1-1.2-2.4-3.1-3.6-5.1
		c1.2,0.3,2.3-0.5,0.8-2.3c-2.5-3-6-11.4-6-11.4c-0.5-1.4-2.1-1.2-2.5,0c0,0-3.8,8.8-6,11.3c-1.3,1.4-0.4,2.3,0.7,2.4
		c-1.2,2.1-2.5,4-3.6,5.1c-2,2-0.2,3.2,1.5,2.9c-1.2,1.8-2.4,3.4-3.4,4.4c-3.7,3.6,3.5,4.8,4.5,1.3c-1,3.8,3.4,3.5,4.2-0.3
		c-1.2,5,3.6,4.1,3.6-0.4c0,4.5,4.7,5.2,3.8,0.2c0.7,4.2,5.3,4.5,4.2,0.3C31.4,36.4,38.7,36.2,34.6,31.9z"/>
	<circle class="st2" cx="20.6" cy="11.5" r="1.2"/>
	<circle class="st2" cx="16.7" cy="29.9" r="1.2"/>
	<circle class="st3" cx="28.4" cy="29.4" r="1.2"/>
	<circle class="st3" cx="19.4" cy="21.3" r="1.2"/>
	<circle class="st2" cx="27.1" cy="20.5" r="1.2"/>
	<path class="st4" d="M19.4,9.1c0.2,0.5,0.6,0.9,1.1,1.1c1.6,0.9,3.6,1.3,5.4,1"/>
	<path class="st4" d="M28.9,16.5c-2.6,3.8-7.1,6.2-11.7,6.4c-1.1,0-2.2,0-3.2-0.5"/>
	<path class="st4" d="M12.2,24.5c5,5.7,13.4,8,20.6,5.6"/>
</g>
</svg>
